<svg width="24" height="24" xmlns="http://www.w3.org/2000/svg">
    <path d="M11.989 2c2.542 0 4.633 1.92 4.891 4.381l.072.001c1.743 0 3.2 1.312 3.704 3.6l.786 6.066C21.89 19.87 19.704 22 16.046 22H7.949c-3.956 0-5.977-1.89-5.33-6.188l.761-5.87c.42-2.259 1.917-3.56 3.699-3.56A4.89 4.89 0 0 1 8.5 3.426 4.93 4.93 0 0 1 11.99 2zm4.963 5.83H7.079c-1.065 0-1.973.789-2.262 2.337l-.757 5.845c-.506 3.36.758 4.54 3.889 4.54h8.097c2.892 0 4.365-1.486 3.922-4.555l-.744-5.767c-.352-1.592-1.25-2.4-2.272-2.4zm-2.087 2.686c.402 0 .728.325.728.724 0 .367-.274.67-.63.718l-.098.006h-.044a.726.726 0 0 1-.728-.724c0-.366.274-.669.63-.717l.098-.007h.044zm-5.655 0c.401 0 .727.325.727.724 0 .367-.274.67-.629.718l-.098.006h-.045a.726.726 0 0 1-.727-.724c0-.366.273-.669.628-.717l.1-.007h.044zm2.775-7.068a3.472 3.472 0 0 0-2.458 1.004 3.44 3.44 0 0 0-.98 1.93h6.867a3.46 3.46 0 0 0-3.429-2.934z" fill="#7E879E" fill-rule="nonzero"/>
</svg>
