<svg width="24" height="24" xmlns="http://www.w3.org/2000/svg">
    <g stroke="#A020EF" stroke-width="1.5" fill="none" fill-rule="evenodd" stroke-linecap="round" stroke-linejoin="round">
        <path d="M13.85 4.25v2.42M13.85 17.76v2.024M13.85 14.324v-4.82M18.702 20C20.524 20 22 18.543 22 16.743v-2.592A2.159 2.159 0 0 1 19.823 12c0-1.19.971-2.15 2.177-2.15l-.001-2.594c0-1.8-1.477-3.257-3.298-3.257H5.3C3.478 4 2 5.457 2 7.257L2 9.935c1.206 0 2.177.875 2.177 2.066 0 1.19-.971 2.15-2.177 2.15v2.592C2 18.543 3.476 20 5.298 20h13.404z"/>
    </g>
</svg>
