<svg width="22" height="22" xmlns="http://www.w3.org/2000/svg">
    <g fill="#A020EF" stroke="#A020EF" stroke-width="1.5" fill-rule="evenodd" stroke-linecap="round" stroke-linejoin="round">
        <path d="M15.286 1h3.266A2.46 2.46 0 0 1 21 3.47v3.294c0 1.363-1.096 2.47-2.448 2.47h-3.266a2.46 2.46 0 0 1-2.45-2.47V3.47A2.46 2.46 0 0 1 15.287 1zM3.449 1h3.265a2.46 2.46 0 0 1 2.45 2.47v3.294a2.46 2.46 0 0 1-2.45 2.47H3.45A2.46 2.46 0 0 1 1 6.764V3.47A2.46 2.46 0 0 1 3.449 1zM3.449 12.766h3.265a2.46 2.46 0 0 1 2.45 2.47v3.294A2.46 2.46 0 0 1 6.713 21H3.45A2.46 2.46 0 0 1 1 18.53v-3.293a2.46 2.46 0 0 1 2.449-2.471zM15.286 12.766h3.266c1.352 0 2.448 1.106 2.448 2.47v3.294A2.46 2.46 0 0 1 18.552 21h-3.266a2.46 2.46 0 0 1-2.45-2.47v-3.293a2.46 2.46 0 0 1 2.45-2.471z"/>
    </g>
</svg>
