<svg xmlns="http://www.w3.org/2000/svg" width="22" height="20" viewBox="0 0 22 20">
    <g fill="none" fill-rule="evenodd" stroke-linecap="round" stroke-linejoin="round">
        <g fill="#A020EF" stroke="#A020EF" stroke-width="1.5">
            <g>
                <g>
                    <path d="M9.261 17.854c-2.17-1.336-4.19-2.908-6.022-4.689C1.951 11.883.971 10.32.373 8.595-.703 5.25.553 1.421 4.071.288 5.92-.308 7.938.033 9.496 1.2h0C11.054.034 13.072-.306 14.921.288c3.517 1.133 4.783 4.962 3.707 8.307-.598 1.725-1.578 3.288-2.866 4.57-1.832 1.78-3.851 3.353-6.022 4.689L9.505 18l-.244-.146z" transform="translate(-229.000000, -775.000000) translate(0.000000, 757.000000) translate(230.500000, 19.000000)"/>
                </g>
            </g>
        </g>
    </g>
</svg>
