<svg width="22" height="22" xmlns="http://www.w3.org/2000/svg">
    <path d="M8.157 19.771v-3.066c0-.78.636-1.414 1.424-1.42h2.886c.792 0 1.434.636 1.434 1.42h0v3.076c0 .662.533 1.203 1.202 1.219h1.924c1.918 0 3.473-1.54 3.473-3.438h0V8.838a2.44 2.44 0 0 0-.962-1.905l-6.58-5.248a3.18 3.18 0 0 0-3.945 0L2.462 6.943A2.42 2.42 0 0 0 1.5 8.847v8.715C1.5 19.46 3.055 21 4.973 21h1.924c.685 0 1.241-.55 1.241-1.229h0" stroke="#969FC0" stroke-width="1.5" fill="none" fill-rule="evenodd" stroke-linecap="round" stroke-linejoin="round"/>
</svg>
